<svg width="69" height="55" viewBox="0 0 69 55" fill="none" xmlns="http://www.w3.org/2000/svg">
<path d="M32.3389 1H48.3057C52.9234 1 56.6825 4.7582 56.6826 9.37598C56.6826 12.8251 54.1386 16.983 48.5527 21.7383C44.5741 25.1254 40.6502 27.4429 40.4932 27.5352C40.4415 27.5655 40.3825 27.582 40.3232 27.582C40.2628 27.582 40.2019 27.5648 40.1514 27.5352C39.9877 27.439 36.0678 25.1222 32.0928 21.7383C26.5068 16.9828 23.9629 12.825 23.9629 9.37598C23.9631 4.75842 27.7212 1.00017 32.3389 1ZM48.3057 1.66797C44.4043 1.66811 41.1144 4.58635 40.6543 8.45801C40.6342 8.6259 40.4916 8.75195 40.3223 8.75195C40.1527 8.75181 40.0102 8.62566 39.9902 8.45801C39.5301 4.58625 36.2404 1.66797 32.3389 1.66797C28.0881 1.66814 24.6319 5.12504 24.6318 9.37598C24.6318 9.77195 24.6687 10.1679 24.7373 10.5615C25.9979 17.798 33.3883 21.1757 40.3223 21.1758C47.2563 21.1758 54.6476 17.7982 55.9082 10.5615C55.9768 10.1679 56.0137 9.77195 56.0137 9.37598C56.0137 5.12524 52.5567 1.66797 48.3057 1.66797Z" fill="white" stroke="white" stroke-width="2"/>
<path d="M46.1689 15.8188C46.3038 15.6922 46.5152 15.6991 46.6416 15.8335C46.7679 15.9678 46.7617 16.1787 46.6279 16.3052C46.1796 16.7266 45.6986 17.1577 45.1992 17.5854C43.9753 18.6334 42.616 19.6876 41.1494 20.7241L40.5137 21.1675C40.4552 21.2078 40.391 21.226 40.3262 21.2261C40.2172 21.2261 40.1143 21.175 40.0498 21.0815C39.945 20.9294 39.9831 20.7215 40.1348 20.6167C41.6088 19.6014 42.9858 18.5626 44.2363 17.5229L44.7646 17.0776C45.0098 16.8678 45.2507 16.6571 45.4854 16.4468L46.1689 15.8188Z" fill="white" stroke="white" stroke-width="2"/>
<path d="M49.5293 12.0186C49.633 11.8654 49.8412 11.8253 49.9941 11.9287C50.1469 12.0324 50.1863 12.2399 50.083 12.3926C50.0518 12.4385 50.022 12.4825 49.9922 12.5254V12.5264C49.9275 12.6194 49.8244 12.6699 49.7158 12.6699C49.6667 12.6699 49.6177 12.6595 49.5713 12.6367L49.5264 12.6104C49.3749 12.505 49.3371 12.2963 49.4424 12.1445L49.4434 12.1436C49.4689 12.1067 49.4995 12.0626 49.5293 12.0186Z" fill="white" stroke="white" stroke-width="2"/>
<path d="M34.4199 32.7568H42.0605C44.3362 32.7568 46.1895 34.6101 46.1895 36.8857C46.1895 37.6612 46.4684 38.4747 46.9707 39.0635C47.494 39.6768 48.3684 40.1353 49.3877 39.7832C49.9104 39.6026 50.4187 39.3784 50.9072 39.1143L50.9082 39.1152C50.9082 39.1152 50.9092 39.1152 50.9111 39.1143C50.9129 39.1133 50.9157 39.1096 50.9199 39.1074L50.9209 39.1084L60.3262 34.1465L60.3271 34.1475L60.3359 34.1426C62.5217 32.9616 65.1951 33.718 66.4375 35.8701C67.0578 36.9445 67.2131 38.1872 66.876 39.3809C66.5388 40.5746 65.7559 41.5523 64.665 42.1436L48.9795 50.4951L48.9736 50.499C47.3952 51.3533 45.6007 51.8076 43.7959 51.8076H31.5303C30.1581 51.8076 28.7889 51.6325 27.4619 51.2861L23.3232 50.2061C22.0417 49.8717 20.7893 50.8387 20.7891 52.1631C20.7891 53.1752 19.9642 53.999 18.9521 53.999L1.33496 53.9834H1.33398C1.14962 53.9832 1 53.8328 1 53.6484V33.4277C1.00015 33.2664 1.1147 33.1317 1.2666 33.1006L1.33398 33.0938H18.9521C19.964 33.0938 20.7888 33.9186 20.7891 34.9307C20.7891 35.6956 21.2761 36.2515 21.8281 36.4912C22.3735 36.728 23.0865 36.7071 23.6484 36.25C26.2273 34.1523 29.6424 32.9177 33.6172 32.7715L34.4199 32.7568ZM6.97754 33.7617C4.04554 33.762 1.66912 36.1393 1.66895 39.0713V48.0049C1.66895 50.937 4.04543 53.3142 6.97754 53.3145C9.90985 53.3145 12.2871 50.9372 12.2871 48.0049V39.0713C12.2869 36.1391 9.90974 33.7617 6.97754 33.7617ZM34.4199 33.4248C29.1951 33.4248 24.7461 35.3519 21.9883 38.9033C21.0884 40.0622 20.7891 41.4853 20.7891 42.7969C20.7891 46.3642 23.1977 49.4822 26.6494 50.3828L27.6309 50.6387C28.9031 50.9706 30.215 51.1396 31.5303 51.1396H43.7959C45.4883 51.1396 47.1676 50.7135 48.6562 49.9092L48.6572 49.9102L64.3486 41.5547L64.3555 41.5518C65.2179 41.0845 65.8611 40.3153 66.1738 39.3867L66.2324 39.1992C66.5188 38.1849 66.3849 37.1168 65.8584 36.2041C64.8015 34.3731 62.5076 33.7248 60.6484 34.7324L60.6465 34.7334L60.6455 34.7344L51.2393 39.6963L51.2295 39.7012C49.6426 40.5599 47.8492 41.0136 46.0449 41.0137H32.9492C32.7647 41.0137 32.6152 40.8642 32.6152 40.6797C32.6153 40.4952 32.7647 40.3457 32.9492 40.3457H42.0605C43.9697 40.3457 45.5205 38.7937 45.5205 36.8848C45.5204 34.9759 43.9695 33.4248 42.0605 33.4248H34.4199ZM20.1201 40.748L20.1172 40.7051C20.1167 40.6999 20.1158 40.683 20.1182 40.6514L20.1201 40.6152V34.9307C20.1201 34.2854 19.5972 33.7617 18.9521 33.7617C15.6405 33.7617 12.9561 36.4471 12.9561 39.7588V47.335C12.9561 50.6466 15.6405 53.332 18.9521 53.332C19.5979 53.332 20.1201 52.8076 20.1201 52.1631V40.748Z" fill="white" stroke="white" stroke-width="2"/>
</svg>
