<svg width="57" height="72" viewBox="0 0 57 72" fill="none" xmlns="http://www.w3.org/2000/svg">
<path d="M52.2863 21.5674C55.2123 16.7638 51.5177 10.7502 45.9207 10.8268C45.9938 5.34032 39.8024 1.75541 34.8781 4.62824C33.5889 2.41352 31.1709 1 28.495 1C25.8284 1 23.4151 2.4107 22.1247 4.62031C17.1894 1.75775 11.0091 5.34792 11.0821 10.8268C5.46854 10.759 1.80012 16.7454 4.72577 21.5645C2.45175 22.8112 1 25.1617 1 27.7716C1 30.3838 2.44711 32.7365 4.71648 33.9866C1.85989 38.6599 5.25339 44.726 11.0844 44.726C11.0693 46.3157 11.6315 47.8814 12.6516 49.1618C12.6453 49.1603 12.6386 49.1593 12.6323 49.1579C8.69572 54.8435 4.43818 60.4017 2.07154 66.6315C2.02392 66.7242 2.11908 66.8052 2.20234 66.7473C4.90202 65.2304 7.83949 63.7945 10.9078 62.4049C10.9673 62.3818 11.0387 62.4049 11.0387 62.4744C11.5738 65.1377 12.216 67.8474 13.108 70.6496C13.1318 70.7307 13.2626 70.7307 13.2983 70.6612C15.6993 64.3628 20.0174 58.7422 23.984 53.0159C25.8696 54.4503 28.3613 55.0254 30.9075 54.1536C34.6534 59.4885 38.5599 64.777 40.8062 70.6612C40.83 70.7307 40.9608 70.7307 40.9846 70.6496C41.8765 67.8474 42.5306 65.1377 43.0539 62.4744C43.0539 62.4049 43.1372 62.3818 43.1847 62.4049C46.265 63.7945 49.2025 65.2304 51.9021 66.7473C51.9735 66.8052 52.0686 66.7242 52.0329 66.6315C49.864 61.0035 46.1843 55.9092 42.5785 50.7783C44.7042 49.4281 45.9494 47.1448 45.9195 44.7254C51.5343 44.8348 55.2183 38.749 52.2921 33.9838C57.2356 31.2564 57.2383 24.2881 52.2863 21.5674ZM50.2562 32.3452L49.6499 32.4758C49.5799 32.8155 48.9547 33.5804 49.6697 34.4129C52.8293 37.8202 49.65 43.2655 44.9927 42.3077C43.8609 42.0343 43.4103 43.1662 43.1751 43.3713L43.4585 43.9271C44.3212 48.483 38.7687 51.4298 35.2834 48.3599C34.4627 47.6909 33.5841 48.3481 33.3079 48.4062L33.1847 48.979C31.6128 53.3669 25.3063 53.253 23.8076 48.975L23.6694 48.3847L23.0213 48.1495C22.5777 47.989 22.0841 48.0766 21.6904 48.3983C19.7707 50.0757 16.6037 50.1221 14.6732 47.9494C13.6697 46.8186 13.2563 45.2919 13.5594 43.8547C13.6779 43.4544 13.5849 43.0201 13.2981 42.6995L12.6663 42.0912L11.9799 42.3139C7.33462 43.2274 4.16672 37.8303 7.36565 34.3778C7.67226 34.0194 7.76053 33.532 7.59677 33.1057L7.28435 32.4209L6.70017 32.3293C4.70953 31.6514 3.37856 29.8314 3.37856 27.7716C3.37856 25.6909 4.74669 23.8533 6.79307 23.1968C7.80698 22.8629 7.66828 21.8247 7.75122 21.595L7.33661 21.1461C4.14256 17.6769 7.43834 12.2864 12.0089 13.2479C13.141 13.5201 13.5989 12.3723 13.8277 12.1702L13.5443 11.615C12.6994 7.17264 18.1639 4.08836 21.6904 7.17087L21.8239 7.27095C22.2037 7.51917 22.6752 7.56384 23.0898 7.38799L23.7402 7.06571L23.8273 6.54102C24.537 4.60789 26.401 3.31592 28.495 3.31592C30.6204 3.31592 32.5053 4.63898 33.1964 6.61112L33.3299 7.15845C33.6408 7.23688 34.3682 7.81746 35.18 7.28397L35.3159 7.18106C36.9105 5.77827 39.2217 5.53968 41.0707 6.58738C42.8859 7.61642 43.8557 9.70787 43.4446 11.6908C43.1539 12.6703 44.1155 13.1636 44.34 13.4673L45.0287 13.2406C49.6403 12.3081 52.7998 17.7412 49.7115 21.1003C48.9546 21.8372 49.5519 22.7229 49.586 22.9961L50.2202 23.1997C54.7351 24.6483 54.7533 30.8642 50.2562 32.3452Z" fill="#D9D0FF" stroke="#D9D0FF"/>
<path d="M28.5026 11.4897C19.262 11.4897 11.7695 18.7848 11.7695 27.7821C11.7695 36.7794 19.262 44.0745 28.5026 44.0745C37.7433 44.0745 45.2477 36.7794 45.2477 27.7821C45.2477 18.7848 37.7433 11.4897 28.5026 11.4897ZM39.2775 25.4083L34.009 30.4686C33.9852 30.4917 33.9852 30.5149 33.9852 30.5381L35.2815 37.6362C35.2934 37.7058 35.234 37.7405 35.1745 37.7173L28.5978 34.394C28.574 34.3824 28.5502 34.3824 28.5265 34.394L21.9854 37.7984C21.9378 37.8215 21.8665 37.7753 21.8784 37.7173L23.0915 30.5959C23.0915 30.5728 23.0795 30.5496 23.0676 30.538L17.7278 25.5357C17.6922 25.4893 17.704 25.4198 17.7754 25.4083L25.1013 24.3314C25.1251 24.3198 25.137 24.3083 25.1489 24.2851L28.3956 17.8006C28.4194 17.7426 28.5026 17.7426 28.5265 17.8006L31.8445 24.2503C31.8564 24.2735 31.8802 24.2851 31.904 24.2851L39.2418 25.2809C39.3013 25.2925 39.325 25.362 39.2775 25.4083Z" fill="#D9D0FF" stroke="#D9D0FF"/>
</svg>
