<svg width="37" height="40" viewBox="0 0 37 40" fill="none" xmlns="http://www.w3.org/2000/svg">
<path d="M12.5264 1.65771H18.6289C18.9939 1.65771 19.29 1.95384 19.29 2.31885V5.24658C19.29 6.05035 19.8683 6.54325 20.29 6.76318C20.7286 6.9918 21.3117 7.10874 21.8574 6.96729C22.1679 6.88686 22.4951 6.90411 22.7959 7.01807C23.097 7.13222 23.3593 7.33883 23.5459 7.61182C23.7326 7.88503 23.834 8.21149 23.834 8.54736C23.834 8.88327 23.7326 9.20966 23.5459 9.48291C23.3593 9.75597 23.0971 9.96248 22.7959 10.0767C22.495 10.1907 22.1679 10.2079 21.8574 10.1274C21.3118 9.986 20.7286 10.103 20.29 10.3315C19.8683 10.5515 19.29 11.0444 19.29 11.8481V14.7769C19.2898 15.1417 18.9938 15.437 18.6289 15.437H16.0225C16.017 15.4193 16.0116 15.4007 16.0088 15.3823C16.002 15.338 16.0085 15.3249 16.0039 15.3433C16.183 14.6294 16.1433 13.8769 15.8896 13.186C15.6359 12.495 15.179 11.8961 14.5781 11.4722C13.9772 11.0484 13.2613 10.8199 12.5264 10.8198C11.7913 10.8198 11.0747 11.0482 10.4736 11.4722C9.87275 11.8961 9.41585 12.4949 9.16211 13.186C8.90848 13.8768 8.86874 14.6294 9.04785 15.3433C9.0433 15.3249 9.04978 15.338 9.04297 15.3823C9.04014 15.4007 9.03567 15.4193 9.03027 15.437H6.42578C6.05935 15.437 5.76182 15.1403 5.76172 14.7739V8.42236C5.76172 4.68655 8.79056 1.65771 12.5264 1.65771Z" fill="#FFE483" stroke="#FFE483" stroke-width="2"/>
<path d="M8.32129 24.1273C8.93289 23.9787 9.56948 23.9725 10.1836 24.1098C10.7978 24.2471 11.3744 24.5248 11.8701 24.9223C12.3659 25.3198 12.7681 25.8273 13.0449 26.4076C13.3217 26.988 13.4659 27.6256 13.4658 28.2719V28.2738C13.4668 28.9832 13.2924 29.6806 12.96 30.3022C12.1511 31.8038 11.6738 33.4617 11.5547 35.1615H7.0127C6.86958 33.43 6.379 31.7432 5.56836 30.2055C5.28113 29.6306 5.12601 28.9961 5.11426 28.35C5.10254 27.7038 5.23462 27.0634 5.50098 26.4779C5.76732 25.8925 6.1608 25.3778 6.64941 24.9711C7.138 24.5644 7.7096 24.2761 8.32129 24.1273Z" fill="#FFE483" stroke="#FFE483" stroke-width="2"/>
<mask id="path-3-inside-1_402_432" fill="white">
<path d="M9.93684 36.1722C9.93684 36.5295 9.64716 36.8192 9.28981 36.8192C8.93247 36.8192 8.64279 36.5295 8.64279 36.1722V31.5594C8.64279 31.0362 8.84729 30.5345 9.21132 30.1646C9.57534 29.7947 10.0691 29.5869 10.5839 29.5869C10.7555 29.5869 10.92 29.5176 11.0414 29.3943C11.1627 29.271 11.2309 29.1038 11.2309 28.9294V28.3423C11.2368 28.1785 11.187 28.0176 11.0897 27.8868C10.9925 27.756 10.8538 27.6633 10.6971 27.6243C10.604 27.6075 10.5084 27.6116 10.417 27.6364C10.3256 27.6612 10.2407 27.7061 10.1682 27.7678C10.0957 27.8295 10.0374 27.9067 9.99746 27.9938C9.95749 28.0809 9.9368 28.1758 9.93684 28.2719C9.93684 28.4463 9.86867 28.6135 9.74733 28.7369C9.62599 28.8602 9.46141 28.9294 9.28981 28.9294C9.11821 28.9294 8.95364 28.8602 8.8323 28.7369C8.71096 28.6135 8.64279 28.4463 8.64279 28.2719C8.64279 28.0976 8.57462 27.9303 8.45328 27.807C8.33194 27.6837 8.16736 27.6145 7.99576 27.6145C7.82416 27.6145 7.65959 27.6837 7.53825 27.807C7.33879 28.0097 7.11821 28.2719 6.83385 28.2719H6.70183C6.34446 28.2719 6.04487 27.9748 6.15856 27.636C6.2099 27.483 6.27981 27.3363 6.36725 27.1993C6.57112 26.8799 6.8616 26.6273 7.20364 26.4719C7.54567 26.3165 7.92465 26.2651 8.29482 26.3237C8.64836 26.3798 8.97945 26.5339 9.25176 26.7688C9.27357 26.7876 9.30565 26.7871 9.32799 26.7689C9.54374 26.5829 9.79681 26.4468 10.0696 26.3703C10.3423 26.2938 10.6282 26.2786 10.9074 26.3258C11.3669 26.4158 11.7807 26.6671 12.0764 27.0357C12.372 27.4043 12.5308 27.8668 12.5249 28.3423V28.9294C12.5249 29.4525 12.3204 29.9542 11.9564 30.3242C11.5924 30.6941 11.0987 30.9019 10.5839 30.9019C10.4123 30.9019 10.2477 30.9711 10.1263 31.0944C10.005 31.2177 9.93684 31.385 9.93684 31.5594V36.1722Z"/>
</mask>
<path d="M9.93684 36.1722C9.93684 36.5295 9.64716 36.8192 9.28981 36.8192C8.93247 36.8192 8.64279 36.5295 8.64279 36.1722V31.5594C8.64279 31.0362 8.84729 30.5345 9.21132 30.1646C9.57534 29.7947 10.0691 29.5869 10.5839 29.5869C10.7555 29.5869 10.92 29.5176 11.0414 29.3943C11.1627 29.271 11.2309 29.1038 11.2309 28.9294V28.3423C11.2368 28.1785 11.187 28.0176 11.0897 27.8868C10.9925 27.756 10.8538 27.6633 10.6971 27.6243C10.604 27.6075 10.5084 27.6116 10.417 27.6364C10.3256 27.6612 10.2407 27.7061 10.1682 27.7678C10.0957 27.8295 10.0374 27.9067 9.99746 27.9938C9.95749 28.0809 9.9368 28.1758 9.93684 28.2719C9.93684 28.4463 9.86867 28.6135 9.74733 28.7369C9.62599 28.8602 9.46141 28.9294 9.28981 28.9294C9.11821 28.9294 8.95364 28.8602 8.8323 28.7369C8.71096 28.6135 8.64279 28.4463 8.64279 28.2719C8.64279 28.0976 8.57462 27.9303 8.45328 27.807C8.33194 27.6837 8.16736 27.6145 7.99576 27.6145C7.82416 27.6145 7.65959 27.6837 7.53825 27.807C7.33879 28.0097 7.11821 28.2719 6.83385 28.2719H6.70183C6.34446 28.2719 6.04487 27.9748 6.15856 27.636C6.2099 27.483 6.27981 27.3363 6.36725 27.1993C6.57112 26.8799 6.8616 26.6273 7.20364 26.4719C7.54567 26.3165 7.92465 26.2651 8.29482 26.3237C8.64836 26.3798 8.97945 26.5339 9.25176 26.7688C9.27357 26.7876 9.30565 26.7871 9.32799 26.7689C9.54374 26.5829 9.79681 26.4468 10.0696 26.3703C10.3423 26.2938 10.6282 26.2786 10.9074 26.3258C11.3669 26.4158 11.7807 26.6671 12.0764 27.0357C12.372 27.4043 12.5308 27.8668 12.5249 28.3423V28.9294C12.5249 29.4525 12.3204 29.9542 11.9564 30.3242C11.5924 30.6941 11.0987 30.9019 10.5839 30.9019C10.4123 30.9019 10.2477 30.9711 10.1263 31.0944C10.005 31.2177 9.93684 31.385 9.93684 31.5594V36.1722Z" fill="#FFE483"/>
<path d="M10.5839 29.5869V27.5869V29.5869ZM11.2309 28.3423L9.23221 28.2696L9.23089 28.3059V28.3423H11.2309ZM10.6971 27.6243L11.1794 25.6834L11.1164 25.6677L11.0526 25.6562L10.6971 27.6243ZM9.93684 28.2719H11.9368V28.2711L9.93684 28.2719ZM10.9074 26.3258L11.2918 24.3631L11.2664 24.3581L11.2409 24.3538L10.9074 26.3258ZM12.5249 28.3423L10.5251 28.3176L10.5249 28.3299V28.3423H12.5249ZM12.5249 28.9294H14.5249H12.5249ZM9.25176 26.7688L10.5579 25.2542L9.25176 26.7688ZM8.64279 36.1722H10.6428V31.5594H8.64279H6.64279V36.1722H8.64279ZM8.64279 31.5594H10.6428C10.6428 31.5585 10.6429 31.5586 10.6426 31.5595C10.6422 31.5604 10.6407 31.5635 10.6368 31.5675L9.21132 30.1646L7.78581 28.7618C7.05035 29.5091 6.64279 30.516 6.64279 31.5594H8.64279ZM9.21132 30.1646L10.6368 31.5675C10.6283 31.5761 10.6099 31.5869 10.5839 31.5869V29.5869V27.5869C9.52818 27.5869 8.52234 28.0134 7.78581 28.7618L9.21132 30.1646ZM10.5839 29.5869V31.5869C11.2963 31.5869 11.973 31.299 12.4669 30.7972L11.0414 29.3943L9.61588 27.9915C9.86705 27.7363 10.2146 27.5869 10.5839 27.5869V29.5869ZM11.0414 29.3943L12.4669 30.7972C12.9597 30.2964 13.2309 29.624 13.2309 28.9294H11.2309H9.23089C9.23089 28.5836 9.36577 28.2457 9.61588 27.9915L11.0414 29.3943ZM11.2309 28.9294H13.2309V28.3423H11.2309H9.23089V28.9294H11.2309ZM11.2309 28.3423L13.2296 28.415C13.252 27.7995 13.065 27.1915 12.6948 26.6935L11.0897 27.8868L9.48473 29.0801C9.30894 28.8436 9.22174 28.5574 9.23221 28.2696L11.2309 28.3423ZM11.0897 27.8868L12.6948 26.6935C12.324 26.1948 11.7902 25.8351 11.1794 25.6834L10.6971 27.6243L10.2148 29.5653C9.91737 29.4914 9.66101 29.3171 9.48473 29.0801L11.0897 27.8868ZM10.6971 27.6243L11.0526 25.6562C10.667 25.5865 10.2711 25.6037 9.89335 25.7062L10.417 27.6364L10.9406 29.5667C10.7456 29.6196 10.5409 29.6285 10.3416 29.5925L10.6971 27.6243ZM10.417 27.6364L9.89335 25.7062C9.51563 25.8086 9.16699 25.9934 8.87127 26.2453L10.1682 27.7678L11.4651 29.2903C11.3144 29.4187 11.1356 29.5138 10.9406 29.5667L10.417 27.6364ZM10.1682 27.7678L8.87127 26.2453C8.57567 26.4971 8.34032 26.8097 8.17974 27.1596L9.99746 27.9938L11.8152 28.828C11.7346 29.0037 11.6158 29.162 11.4651 29.2903L10.1682 27.7678ZM9.99746 27.9938L8.17974 27.1596C8.01919 27.5094 7.93668 27.8893 7.93684 28.2728L9.93684 28.2719L11.9368 28.2711C11.9369 28.4624 11.8958 28.6523 11.8152 28.828L9.99746 27.9938ZM9.93684 28.2719H7.93684C7.93684 27.9261 8.07172 27.5882 8.32183 27.334L9.74733 28.7369L11.1728 30.1397C11.6656 29.6389 11.9368 28.9665 11.9368 28.2719H9.93684ZM9.74733 28.7369L8.32183 27.334C8.573 27.0788 8.92055 26.9294 9.28981 26.9294V28.9294V30.9294C10.0023 30.9294 10.679 30.6415 11.1728 30.1397L9.74733 28.7369ZM9.28981 28.9294V26.9294C9.65908 26.9294 10.0066 27.0788 10.2578 27.334L8.8323 28.7369L7.40679 30.1397C7.90065 30.6415 8.57734 30.9294 9.28981 30.9294V28.9294ZM8.8323 28.7369L10.2578 27.334C10.5079 27.5882 10.6428 27.9261 10.6428 28.2719H8.64279H6.64279C6.64279 28.9665 6.914 29.6389 7.40679 30.1397L8.8323 28.7369ZM8.64279 28.2719H10.6428C10.6428 27.5774 10.3716 26.905 9.87878 26.4042L8.45328 27.807L7.02777 29.2099C6.77767 28.9557 6.64279 28.6177 6.64279 28.2719H8.64279ZM8.45328 27.807L9.87878 26.4042C9.38493 25.9024 8.70823 25.6145 7.99576 25.6145V27.6145V29.6145C7.6265 29.6145 7.27895 29.4651 7.02777 29.2099L8.45328 27.807ZM7.99576 27.6145V25.6145C7.28329 25.6145 6.6066 25.9024 6.11274 26.4042L7.53825 27.807L8.96375 29.2099C8.71257 29.4651 8.36503 29.6145 7.99576 29.6145V27.6145ZM6.83385 28.2719V26.2719H6.70183V28.2719V30.2719H6.83385V28.2719ZM6.15856 27.636L8.05466 28.2723C8.05453 28.2727 8.05412 28.2738 8.05309 28.2754L6.36725 27.1993L4.6814 26.1232C4.5055 26.3988 4.36528 26.6934 4.26247 26.9998L6.15856 27.636ZM6.36725 27.1993L8.05309 28.2754C8.05072 28.2791 8.04422 28.2867 8.03076 28.2929L7.20364 26.4719L6.37652 24.651C5.67898 24.9678 5.09152 25.4807 4.6814 26.1232L6.36725 27.1993ZM7.20364 26.4719L8.03076 28.2929C8.01696 28.2991 7.99956 28.3019 7.98182 28.2991L8.29482 26.3237L8.60782 24.3484C7.84973 24.2283 7.07438 24.334 6.37652 24.651L7.20364 26.4719ZM8.29482 26.3237L7.98182 28.2991C7.96508 28.2964 7.95287 28.2896 7.94559 28.2833L9.25176 26.7688L10.5579 25.2542C10.006 24.7782 9.33165 24.4631 8.60782 24.3484L8.29482 26.3237ZM9.32799 26.7689L10.6341 28.2835C10.6291 28.2878 10.6211 28.2928 10.6099 28.2959L10.0696 26.3703L9.52928 24.4447C8.97253 24.6009 8.45834 24.8779 8.02183 25.2544L9.32799 26.7689ZM10.0696 26.3703L10.6099 28.2959C10.5986 28.2991 10.5861 28.2999 10.5739 28.2978L10.9074 26.3258L11.2409 24.3538C10.6704 24.2573 10.0861 24.2884 9.52928 24.4447L10.0696 26.3703ZM10.9074 26.3258L10.5229 28.2885C10.5142 28.2868 10.5132 28.2833 10.5163 28.2871L12.0764 27.0357L13.6364 25.7842C13.0481 25.0509 12.2196 24.5448 11.2918 24.3631L10.9074 26.3258ZM12.0764 27.0357L10.5163 28.2871C10.5199 28.2917 10.5253 28.3023 10.5251 28.3176L12.5249 28.3423L14.5248 28.367C14.5364 27.4312 14.2242 26.5169 13.6364 25.7842L12.0764 27.0357ZM12.5249 28.3423H10.5249V28.9294H12.5249H14.5249V28.3423H12.5249ZM12.5249 28.9294H10.5249C10.5249 28.9302 10.5248 28.9302 10.5251 28.9293C10.5255 28.9284 10.527 28.9253 10.5309 28.9213L11.9564 30.3242L13.3819 31.727C14.1174 30.9796 14.5249 29.9727 14.5249 28.9294H12.5249ZM11.9564 30.3242L10.5309 28.9213C10.5394 28.9127 10.5578 28.9019 10.5839 28.9019V30.9019V32.9019C11.6395 32.9019 12.6454 32.4754 13.3819 31.727L11.9564 30.3242ZM10.5839 30.9019V28.9019C9.87139 28.9019 9.1947 29.1898 8.70084 29.6916L10.1263 31.0944L11.5519 32.4973C11.3007 32.7525 10.9531 32.9019 10.5839 32.9019V30.9019ZM10.1263 31.0944L8.70084 29.6916C8.20805 30.1924 7.93684 30.8648 7.93684 31.5594H9.93684H11.9368C11.9368 31.9052 11.802 32.2431 11.5519 32.4973L10.1263 31.0944ZM9.93684 31.5594H7.93684V36.1722H9.93684H11.9368V31.5594H9.93684ZM6.70183 28.2719V26.2719C7.06082 26.2719 7.44543 26.4169 7.73765 26.7404C8.06464 27.1023 8.25135 27.6861 8.05466 28.2723L6.15856 27.636L4.26247 26.9998C3.95208 27.9247 4.23175 28.8265 4.76945 29.4217C5.27237 29.9785 5.98546 30.2719 6.70183 30.2719V28.2719ZM9.25176 26.7688L7.94559 28.2833C8.7469 28.9744 9.86307 28.9114 10.5896 28.3208L9.32799 26.7689L8.0664 25.217C8.74822 24.6628 9.80023 24.6008 10.5579 25.2542L9.25176 26.7688ZM7.53825 27.807L6.11274 26.4042C6.07955 26.4379 6.04505 26.4738 6.02422 26.4953C5.99965 26.5208 5.98405 26.5368 5.97094 26.5498C5.94249 26.5782 5.95062 26.5677 5.98185 26.5432C6.02831 26.5066 6.33426 26.2719 6.83385 26.2719V28.2719V30.2719C7.6178 30.2719 8.17622 29.9061 8.45392 29.6878C8.70177 29.493 8.9513 29.2225 8.96375 29.2099L7.53825 27.807ZM9.28981 36.8192V34.8192C10.037 34.8192 10.6428 35.425 10.6428 36.1722H8.64279H6.64279C6.64279 37.6341 7.8279 38.8192 9.28981 38.8192V36.8192ZM9.28981 36.8192V38.8192C10.7517 38.8192 11.9368 37.6341 11.9368 36.1722H9.93684H7.93684C7.93684 35.425 8.54259 34.8192 9.28981 34.8192V36.8192Z" fill="white" mask="url(#path-3-inside-1_402_432)"/>
<mask id="path-5-inside-2_402_432" fill="white">
<path d="M9.93467 20.3923V19.0564C9.93467 18.6991 9.64499 18.4094 9.28765 18.4094C8.93031 18.4094 8.64062 18.6991 8.64062 19.0564V20.3923C8.64062 20.7497 8.93031 21.0393 9.28765 21.0393C9.64499 21.0393 9.93467 20.7497 9.93467 20.3923Z"/>
</mask>
<path d="M9.93467 20.3923V19.0564C9.93467 18.6991 9.64499 18.4094 9.28765 18.4094C8.93031 18.4094 8.64062 18.6991 8.64062 19.0564V20.3923C8.64062 20.7497 8.93031 21.0393 9.28765 21.0393C9.64499 21.0393 9.93467 20.7497 9.93467 20.3923Z" fill="#FFE483"/>
<path d="M9.93467 19.0564H7.93467V20.3923H9.93467H11.9347V19.0564H9.93467ZM8.64062 20.3923H10.6406V19.0564H8.64062H6.64062V20.3923H8.64062ZM9.28765 21.0393V19.0393C10.0349 19.0393 10.6406 19.6451 10.6406 20.3923H8.64062H6.64062C6.64062 21.8542 7.82574 23.0393 9.28765 23.0393V21.0393ZM9.93467 20.3923H7.93467C7.93467 19.6451 8.54043 19.0393 9.28765 19.0393V21.0393V23.0393C10.7496 23.0393 11.9347 21.8542 11.9347 20.3923H9.93467ZM9.28765 18.4094V20.4094C8.54042 20.4094 7.93467 19.8036 7.93467 19.0564H9.93467H11.9347C11.9347 17.5945 10.7496 16.4094 9.28765 16.4094V18.4094ZM9.28765 18.4094V16.4094C7.82574 16.4094 6.64062 17.5945 6.64062 19.0564H8.64062H10.6406C10.6406 19.8036 10.0349 20.4094 9.28765 20.4094V18.4094Z" fill="#FFE483" mask="url(#path-5-inside-2_402_432)"/>
<mask id="path-7-inside-3_402_432" fill="white">
<path d="M2.32354 24.0838L1.21191 23.4316C0.899954 23.2486 0.502215 23.3551 0.323533 23.6696C0.144851 23.9841 0.252889 24.3874 0.564842 24.5704L1.67648 25.2226C1.98843 25.4057 2.38617 25.2991 2.56485 24.9847C2.74354 24.6702 2.6355 24.2669 2.32354 24.0838Z"/>
</mask>
<path d="M2.32354 24.0838L1.21191 23.4316C0.899954 23.2486 0.502215 23.3551 0.323533 23.6696C0.144851 23.9841 0.252889 24.3874 0.564842 24.5704L1.67648 25.2226C1.98843 25.4057 2.38617 25.2991 2.56485 24.9847C2.74354 24.6702 2.6355 24.2669 2.32354 24.0838Z" fill="#FFE483"/>
<path d="M1.21191 23.4316L0.223855 25.1705L1.33549 25.8227L2.32354 24.0838L3.3116 22.345L2.19996 21.6927L1.21191 23.4316ZM1.67648 25.2226L2.66453 23.4837L1.5529 22.8315L0.564842 24.5704L-0.42321 26.3093L0.688425 26.9615L1.67648 25.2226ZM2.56485 24.9847L0.839854 23.9725C1.20686 23.3266 2.02379 23.1078 2.66453 23.4837L1.67648 25.2226L0.688425 26.9615C1.95307 27.7035 3.56548 27.2716 4.28985 25.9968L2.56485 24.9847ZM2.32354 24.0838L1.33549 25.8227C0.694755 25.4468 0.472849 24.6184 0.839854 23.9725L2.56485 24.9847L4.28985 25.9968C5.01422 24.7219 4.57624 23.087 3.3116 22.345L2.32354 24.0838ZM0.323533 23.6696L2.04853 24.6817C1.68153 25.3276 0.864591 25.5464 0.223855 25.1705L1.21191 23.4316L2.19996 21.6927C0.935317 20.9507 -0.677097 21.3826 -1.40147 22.6575L0.323533 23.6696ZM0.323533 23.6696L-1.40147 22.6575C-2.12584 23.9323 -1.68785 25.5673 -0.42321 26.3093L0.564842 24.5704L1.5529 22.8315C2.19363 23.2074 2.41554 24.0358 2.04853 24.6817L0.323533 23.6696Z" fill="#FFE483" mask="url(#path-7-inside-3_402_432)"/>
<mask id="path-9-inside-4_402_432" fill="white">
<path d="M17.3719 23.4313L16.2602 24.0834C15.9482 24.2664 15.8401 24.6697 16.0188 24.9842C16.1974 25.2987 16.5951 25.4053 16.9071 25.2223L18.0188 24.5702C18.3308 24.3872 18.4389 23.9839 18.2603 23.6694C18.0816 23.3549 17.6839 23.2483 17.3719 23.4313Z"/>
</mask>
<path d="M17.3719 23.4313L16.2602 24.0834C15.9482 24.2664 15.8401 24.6697 16.0188 24.9842C16.1974 25.2987 16.5951 25.4053 16.9071 25.2223L18.0188 24.5702C18.3308 24.3872 18.4389 23.9839 18.2603 23.6694C18.0816 23.3549 17.6839 23.2483 17.3719 23.4313Z" fill="#FFE483"/>
<path d="M16.2602 24.0834L17.248 25.8224L18.3598 25.1703L17.3719 23.4313L16.3841 21.6923L15.2723 22.3444L16.2602 24.0834ZM18.0188 24.5702L17.031 22.8312L15.9193 23.4833L16.9071 25.2223L17.895 26.9613L19.0067 26.3092L18.0188 24.5702ZM16.9071 25.2223L15.9193 23.4833C16.5601 23.1074 17.377 23.3264 17.7439 23.9723L16.0188 24.9842L14.2936 25.9961C15.0179 27.271 16.6302 27.7031 17.895 26.9613L16.9071 25.2223ZM18.2603 23.6694L16.5351 24.6813C16.1682 24.0354 16.3902 23.207 17.031 22.8312L18.0188 24.5702L19.0067 26.3092C20.2714 25.5673 20.7096 23.9324 19.9854 22.6575L18.2603 23.6694ZM17.3719 23.4313L18.3598 25.1703C17.719 25.5462 16.9021 25.3273 16.5351 24.6813L18.2603 23.6694L19.9854 22.6575C19.2612 21.3826 17.6488 20.9505 16.3841 21.6923L17.3719 23.4313ZM16.2602 24.0834L15.2723 22.3444C14.0076 23.0863 13.5694 24.7212 14.2936 25.9961L16.0188 24.9842L17.7439 23.9723C18.1108 24.6182 17.8888 25.4466 17.248 25.8224L16.2602 24.0834Z" fill="#FFE483" mask="url(#path-9-inside-4_402_432)"/>
<mask id="path-11-inside-5_402_432" fill="white">
<path d="M5.64852 21.2026L4.99629 20.0548C4.81904 19.7428 4.42448 19.6371 4.11502 19.8187C3.80555 20.0003 3.69838 20.4003 3.87564 20.7123L4.52786 21.8601C4.70512 22.1721 5.09968 22.2778 5.40914 22.0962C5.7186 21.9147 5.82577 21.5146 5.64852 21.2026Z"/>
</mask>
<path d="M5.64852 21.2026L4.99629 20.0548C4.81904 19.7428 4.42448 19.6371 4.11502 19.8187C3.80555 20.0003 3.69838 20.4003 3.87564 20.7123L4.52786 21.8601C4.70512 22.1721 5.09968 22.2778 5.40914 22.0962C5.7186 21.9147 5.82577 21.5146 5.64852 21.2026Z" fill="#FFE483"/>
<path d="M4.99629 20.0548L3.27129 21.0669L3.92351 22.2147L5.64852 21.2026L7.37353 20.1905L6.7213 19.0427L4.99629 20.0548ZM4.52786 21.8601L6.25287 20.848L5.60064 19.7002L3.87564 20.7123L2.15063 21.7244L2.80286 22.8722L4.52786 21.8601ZM5.40914 22.0962L4.42107 20.3573C5.06431 19.9799 5.88443 20.1996 6.25287 20.848L4.52786 21.8601L2.80286 22.8722C3.52581 24.1446 5.13505 24.5756 6.39721 23.8351L5.40914 22.0962ZM5.64852 21.2026L3.92351 22.2147C3.55507 21.5663 3.77784 20.7347 4.42107 20.3573L5.40914 22.0962L6.39721 23.8351C7.65936 23.0946 8.09648 21.4628 7.37353 20.1905L5.64852 21.2026ZM4.11502 19.8187L5.10308 21.5576C4.45985 21.935 3.63972 21.7153 3.27129 21.0669L4.99629 20.0548L6.7213 19.0427C5.99835 17.7704 4.3891 17.3393 3.12695 18.0798L4.11502 19.8187ZM4.11502 19.8187L3.12695 18.0798C1.8648 18.8204 1.42768 20.4521 2.15063 21.7244L3.87564 20.7123L5.60064 19.7002C5.96908 20.3486 5.74631 21.1802 5.10308 21.5576L4.11502 19.8187Z" fill="#FFE483" mask="url(#path-11-inside-5_402_432)"/>
<mask id="path-13-inside-6_402_432" fill="white">
<path d="M13.5902 20.0547L12.9381 21.2027C12.7608 21.5147 12.8681 21.9147 13.1776 22.0963C13.487 22.2778 13.8816 22.1721 14.0588 21.8601L14.7109 20.7121C14.8881 20.4001 14.7809 20.0001 14.4714 19.8185C14.1619 19.637 13.7674 19.7427 13.5902 20.0547Z"/>
</mask>
<path d="M13.5902 20.0547L12.9381 21.2027C12.7608 21.5147 12.8681 21.9147 13.1776 22.0963C13.487 22.2778 13.8816 22.1721 14.0588 21.8601L14.7109 20.7121C14.8881 20.4001 14.7809 20.0001 14.4714 19.8185C14.1619 19.637 13.7674 19.7427 13.5902 20.0547Z" fill="#FFE483"/>
<path d="M12.9381 21.2027L14.6632 22.2146L15.3153 21.0666L13.5902 20.0547L11.865 19.0428L11.2129 20.1908L12.9381 21.2027ZM14.7109 20.7121L12.9858 19.7002L12.3337 20.8482L14.0588 21.8601L15.7839 22.872L16.436 21.724L14.7109 20.7121ZM14.0588 21.8601L12.3337 20.8482C12.702 20.1997 13.5221 19.9799 14.1654 20.3573L13.1776 22.0963L12.1897 23.8353C13.452 24.5757 15.0611 24.1444 15.7839 22.872L14.0588 21.8601ZM14.4714 19.8185L13.4836 21.5575C12.8403 21.1802 12.6174 20.3487 12.9858 19.7002L14.7109 20.7121L16.436 21.724C17.1588 20.4516 16.7215 18.8199 15.4592 18.0795L14.4714 19.8185ZM13.5902 20.0547L15.3153 21.0666C14.9469 21.7151 14.1269 21.9349 13.4836 21.5575L14.4714 19.8185L15.4592 18.0795C14.197 17.3391 12.5878 17.7704 11.865 19.0428L13.5902 20.0547ZM12.9381 21.2027L11.2129 20.1908C10.4902 21.4632 10.9275 23.0949 12.1897 23.8353L13.1776 22.0963L14.1654 20.3573C14.8087 20.7346 15.0315 21.5661 14.6632 22.2146L12.9381 21.2027Z" fill="#FFE483" mask="url(#path-13-inside-6_402_432)"/>
<path d="M7.37012 38.3701H11.21C11.3839 38.3701 11.5254 38.5115 11.5254 38.6855C11.5251 38.8592 11.3838 38.9999 11.21 38.9999H7.37012C7.19631 38.9999 7.05493 38.8592 7.05469 38.6855C7.05469 38.5115 7.19616 38.3701 7.37012 38.3701Z" fill="#FFE483" stroke="#FFE483" stroke-width="2"/>
<mask id="path-16-inside-7_402_432" fill="white">
<path d="M35.8175 0H4.76031C4.5887 0 4.42413 0.0692704 4.30279 0.192572C4.18145 0.315875 4.11328 0.483108 4.11328 0.657484V16.4371C4.11328 16.6115 4.18145 16.7787 4.30279 16.902C4.42413 17.0253 4.5887 17.0946 4.76031 17.0946H10.8294C10.9611 17.0946 11.0896 17.0537 11.1978 16.9775C11.3061 16.9014 11.3889 16.7934 11.4351 16.6681C11.4814 16.5429 11.489 16.4062 11.4568 16.2765C11.4246 16.1467 11.3543 16.0301 11.2551 15.942C11.0447 15.7597 10.8757 15.5333 10.7598 15.2782C10.6438 15.0232 10.5837 14.7456 10.5835 14.4646C10.5835 13.9415 10.788 13.4398 11.1521 13.0699C11.5161 12.7 12.0098 12.4922 12.5246 12.4922C13.0394 12.4922 13.5331 12.7 13.8971 13.0699C14.2612 13.4398 14.4657 13.9415 14.4657 14.4646C14.4655 14.7456 14.4054 15.0232 14.2894 15.2782C14.1735 15.5333 14.0045 15.7597 13.7941 15.942C13.6949 16.0301 13.6246 16.1467 13.5924 16.2765C13.5602 16.4062 13.5678 16.5429 13.6141 16.6681C13.6603 16.7934 13.7431 16.9014 13.8513 16.9775C13.9596 17.0537 14.0881 17.0946 14.2198 17.0946C17.2143 17.0946 19.6419 19.5221 19.6419 22.5166V23.2618C19.6419 23.3956 19.682 23.5262 19.757 23.6362C19.832 23.7462 19.9382 23.8303 20.0615 23.8773C20.1848 23.9243 20.3192 23.932 20.4469 23.8993C20.5746 23.8666 20.6894 23.7951 20.7761 23.6944C20.9555 23.4806 21.1783 23.3088 21.4293 23.191C21.6803 23.0732 21.9535 23.0121 22.23 23.0119C22.7448 23.0119 23.2385 23.2197 23.6025 23.5896C23.9665 23.9596 24.171 24.4613 24.171 24.9844C24.171 25.5075 23.9665 26.0092 23.6025 26.3791C23.2385 26.749 22.7448 26.9568 22.23 26.9568C21.9535 26.9567 21.6803 26.8956 21.4293 26.7777C21.1783 26.6599 20.9555 26.4882 20.7761 26.2744C20.6894 26.1736 20.5746 26.1021 20.4469 26.0694C20.3192 26.0367 20.1848 26.0444 20.0615 26.0914C19.9382 26.1385 19.832 26.2226 19.757 26.3326C19.682 26.4426 19.6419 26.5732 19.6419 26.707V32.2167C19.6419 32.3911 19.71 32.5583 19.8314 32.6816C19.9527 32.8049 20.1173 32.8742 20.2889 32.8742H35.8175C35.9891 32.8742 36.1536 32.8049 36.275 32.6816C36.3963 32.5583 36.4645 32.3911 36.4645 32.2167V0.657484C36.4645 0.483108 36.3963 0.315875 36.275 0.192572C36.1536 0.0692704 35.9891 0 35.8175 0ZM35.1704 14.1373C35.1704 15.0443 34.4351 15.7796 33.5281 15.7796H32.3653C31.7276 15.7796 31.288 15.1023 31.2883 14.4646C31.2883 13.5928 30.9475 12.7566 30.3408 12.1401C29.7341 11.5236 28.9112 11.1772 28.0532 11.1772C27.1952 11.1772 26.3723 11.5236 25.7656 12.1401C25.1589 12.7566 24.8181 13.5928 24.8181 14.4646C24.8184 15.1023 24.3788 15.7796 23.741 15.7796H22.5783C21.6712 15.7796 20.9359 15.0443 20.9359 14.1373V12.8882C20.9359 12.2632 21.605 11.8344 22.23 11.8347C23.088 11.8347 23.9108 11.4884 24.5175 10.8718C25.1242 10.2553 25.4651 9.41916 25.4651 8.54729C25.4651 7.67541 25.1242 6.83924 24.5175 6.22273C23.9108 5.60622 23.088 5.25987 22.23 5.25987C21.605 5.26022 20.9359 4.83139 20.9359 4.20642V2.97068C20.9359 2.05625 21.6772 1.31497 22.5916 1.31497H28.0532C31.9839 1.31497 35.1704 4.50147 35.1704 8.43223V14.1373ZM12.5246 11.1772C11.6669 11.1783 10.8446 11.525 10.2382 12.1412C9.63167 12.7575 9.2905 13.5931 9.28947 14.4646C9.28982 15.1023 8.85017 15.7796 8.21246 15.7796H7.04968C6.14264 15.7796 5.40733 15.0443 5.40733 14.1373V8.43224C5.40733 4.50148 8.59384 1.31497 12.5246 1.31497H14.1321C17.1751 1.31497 19.6419 3.78175 19.6419 6.82468C19.6419 6.95848 19.682 7.0891 19.757 7.19909C19.832 7.30907 19.9382 7.3932 20.0615 7.44022C20.1848 7.48724 20.3192 7.49492 20.4469 7.46223C20.5746 7.42955 20.6894 7.35806 20.7761 7.25731C20.9555 7.04349 21.1783 6.87176 21.4293 6.75393C21.6803 6.63611 21.9535 6.57501 22.23 6.57484C22.7448 6.57484 23.2385 6.78265 23.6025 7.15255C23.9665 7.52246 24.171 8.02416 24.171 8.54729C24.171 9.07041 23.9665 9.57211 23.6025 9.94202C23.2385 10.3119 22.7448 10.5197 22.23 10.5197C21.9535 10.5196 21.6803 10.4585 21.4293 10.3406C21.1783 10.2228 20.9555 10.0511 20.7761 9.83727C20.6894 9.73652 20.5746 9.66502 20.4469 9.63234C20.3192 9.59966 20.1848 9.60734 20.0615 9.65436C19.9382 9.70138 19.832 9.7855 19.757 9.89549C19.682 10.0055 19.6419 10.1361 19.6419 10.2699V14.1373C19.6419 15.0443 18.9066 15.7796 17.9995 15.7796H16.8367C16.199 15.7796 15.7594 15.1023 15.7597 14.4646C15.7587 13.5931 15.4175 12.7575 14.811 12.1412C14.2046 11.525 13.3823 11.1783 12.5246 11.1772ZM35.1704 24.4419C35.1704 28.3727 31.9839 31.5592 28.0532 31.5592H22.334C21.5619 31.5592 20.9359 30.9333 20.9359 30.1611V29.3252C20.9359 28.7003 21.605 28.2714 22.23 28.2718C23.088 28.2718 23.9108 27.9254 24.5175 27.3089C25.1242 26.6924 25.4651 25.8563 25.4651 24.9844C25.4651 24.1125 25.1242 23.2763 24.5175 22.6598C23.9108 22.0433 23.088 21.697 22.23 21.697C21.605 21.6973 20.9359 21.2685 20.9359 20.6435V19.0079C20.9359 17.9512 21.7925 17.0946 22.8492 17.0946H26.358C26.4897 17.0946 26.6182 17.0537 26.7264 16.9775C26.8347 16.9014 26.9174 16.7934 26.9637 16.6681C27.01 16.5429 27.0175 16.4062 26.9854 16.2765C26.9532 16.1467 26.8829 16.0301 26.7837 15.942C26.5733 15.7597 26.4043 15.5333 26.2884 15.2782C26.1724 15.0232 26.1123 14.7456 26.1121 14.4646C26.1121 13.9415 26.3166 13.4398 26.6806 13.0699C27.0447 12.7 27.5384 12.4922 28.0532 12.4922C28.568 12.4922 29.0617 12.7 29.4257 13.0699C29.7897 13.4398 29.9943 13.9415 29.9943 14.4646C29.9941 14.7456 29.9339 15.0232 29.818 15.2782C29.7021 15.5333 29.5331 15.7597 29.3226 15.942C29.2235 16.0301 29.1531 16.1467 29.121 16.2765C29.0888 16.4062 29.0964 16.5429 29.1426 16.6681C29.1889 16.7934 29.2717 16.9014 29.3799 16.9775C29.4882 17.0537 29.6167 17.0946 29.7484 17.0946C32.7429 17.0946 35.1704 19.5221 35.1704 22.5166V24.3269V24.4419Z"/>
</mask>
<path d="M35.8175 0H4.76031C4.5887 0 4.42413 0.0692704 4.30279 0.192572C4.18145 0.315875 4.11328 0.483108 4.11328 0.657484V16.4371C4.11328 16.6115 4.18145 16.7787 4.30279 16.902C4.42413 17.0253 4.5887 17.0946 4.76031 17.0946H10.8294C10.9611 17.0946 11.0896 17.0537 11.1978 16.9775C11.3061 16.9014 11.3889 16.7934 11.4351 16.6681C11.4814 16.5429 11.489 16.4062 11.4568 16.2765C11.4246 16.1467 11.3543 16.0301 11.2551 15.942C11.0447 15.7597 10.8757 15.5333 10.7598 15.2782C10.6438 15.0232 10.5837 14.7456 10.5835 14.4646C10.5835 13.9415 10.788 13.4398 11.1521 13.0699C11.5161 12.7 12.0098 12.4922 12.5246 12.4922C13.0394 12.4922 13.5331 12.7 13.8971 13.0699C14.2612 13.4398 14.4657 13.9415 14.4657 14.4646C14.4655 14.7456 14.4054 15.0232 14.2894 15.2782C14.1735 15.5333 14.0045 15.7597 13.7941 15.942C13.6949 16.0301 13.6246 16.1467 13.5924 16.2765C13.5602 16.4062 13.5678 16.5429 13.6141 16.6681C13.6603 16.7934 13.7431 16.9014 13.8513 16.9775C13.9596 17.0537 14.0881 17.0946 14.2198 17.0946C17.2143 17.0946 19.6419 19.5221 19.6419 22.5166V23.2618C19.6419 23.3956 19.682 23.5262 19.757 23.6362C19.832 23.7462 19.9382 23.8303 20.0615 23.8773C20.1848 23.9243 20.3192 23.932 20.4469 23.8993C20.5746 23.8666 20.6894 23.7951 20.7761 23.6944C20.9555 23.4806 21.1783 23.3088 21.4293 23.191C21.6803 23.0732 21.9535 23.0121 22.23 23.0119C22.7448 23.0119 23.2385 23.2197 23.6025 23.5896C23.9665 23.9596 24.171 24.4613 24.171 24.9844C24.171 25.5075 23.9665 26.0092 23.6025 26.3791C23.2385 26.749 22.7448 26.9568 22.23 26.9568C21.9535 26.9567 21.6803 26.8956 21.4293 26.7777C21.1783 26.6599 20.9555 26.4882 20.7761 26.2744C20.6894 26.1736 20.5746 26.1021 20.4469 26.0694C20.3192 26.0367 20.1848 26.0444 20.0615 26.0914C19.9382 26.1385 19.832 26.2226 19.757 26.3326C19.682 26.4426 19.6419 26.5732 19.6419 26.707V32.2167C19.6419 32.3911 19.71 32.5583 19.8314 32.6816C19.9527 32.8049 20.1173 32.8742 20.2889 32.8742H35.8175C35.9891 32.8742 36.1536 32.8049 36.275 32.6816C36.3963 32.5583 36.4645 32.3911 36.4645 32.2167V0.657484C36.4645 0.483108 36.3963 0.315875 36.275 0.192572C36.1536 0.0692704 35.9891 0 35.8175 0ZM35.1704 14.1373C35.1704 15.0443 34.4351 15.7796 33.5281 15.7796H32.3653C31.7276 15.7796 31.288 15.1023 31.2883 14.4646C31.2883 13.5928 30.9475 12.7566 30.3408 12.1401C29.7341 11.5236 28.9112 11.1772 28.0532 11.1772C27.1952 11.1772 26.3723 11.5236 25.7656 12.1401C25.1589 12.7566 24.8181 13.5928 24.8181 14.4646C24.8184 15.1023 24.3788 15.7796 23.741 15.7796H22.5783C21.6712 15.7796 20.9359 15.0443 20.9359 14.1373V12.8882C20.9359 12.2632 21.605 11.8344 22.23 11.8347C23.088 11.8347 23.9108 11.4884 24.5175 10.8718C25.1242 10.2553 25.4651 9.41916 25.4651 8.54729C25.4651 7.67541 25.1242 6.83924 24.5175 6.22273C23.9108 5.60622 23.088 5.25987 22.23 5.25987C21.605 5.26022 20.9359 4.83139 20.9359 4.20642V2.97068C20.9359 2.05625 21.6772 1.31497 22.5916 1.31497H28.0532C31.9839 1.31497 35.1704 4.50147 35.1704 8.43223V14.1373ZM12.5246 11.1772C11.6669 11.1783 10.8446 11.525 10.2382 12.1412C9.63167 12.7575 9.2905 13.5931 9.28947 14.4646C9.28982 15.1023 8.85017 15.7796 8.21246 15.7796H7.04968C6.14264 15.7796 5.40733 15.0443 5.40733 14.1373V8.43224C5.40733 4.50148 8.59384 1.31497 12.5246 1.31497H14.1321C17.1751 1.31497 19.6419 3.78175 19.6419 6.82468C19.6419 6.95848 19.682 7.0891 19.757 7.19909C19.832 7.30907 19.9382 7.3932 20.0615 7.44022C20.1848 7.48724 20.3192 7.49492 20.4469 7.46223C20.5746 7.42955 20.6894 7.35806 20.7761 7.25731C20.9555 7.04349 21.1783 6.87176 21.4293 6.75393C21.6803 6.63611 21.9535 6.57501 22.23 6.57484C22.7448 6.57484 23.2385 6.78265 23.6025 7.15255C23.9665 7.52246 24.171 8.02416 24.171 8.54729C24.171 9.07041 23.9665 9.57211 23.6025 9.94202C23.2385 10.3119 22.7448 10.5197 22.23 10.5197C21.9535 10.5196 21.6803 10.4585 21.4293 10.3406C21.1783 10.2228 20.9555 10.0511 20.7761 9.83727C20.6894 9.73652 20.5746 9.66502 20.4469 9.63234C20.3192 9.59966 20.1848 9.60734 20.0615 9.65436C19.9382 9.70138 19.832 9.7855 19.757 9.89549C19.682 10.0055 19.6419 10.1361 19.6419 10.2699V14.1373C19.6419 15.0443 18.9066 15.7796 17.9995 15.7796H16.8367C16.199 15.7796 15.7594 15.1023 15.7597 14.4646C15.7587 13.5931 15.4175 12.7575 14.811 12.1412C14.2046 11.525 13.3823 11.1783 12.5246 11.1772ZM35.1704 24.4419C35.1704 28.3727 31.9839 31.5592 28.0532 31.5592H22.334C21.5619 31.5592 20.9359 30.9333 20.9359 30.1611V29.3252C20.9359 28.7003 21.605 28.2714 22.23 28.2718C23.088 28.2718 23.9108 27.9254 24.5175 27.3089C25.1242 26.6924 25.4651 25.8563 25.4651 24.9844C25.4651 24.1125 25.1242 23.2763 24.5175 22.6598C23.9108 22.0433 23.088 21.697 22.23 21.697C21.605 21.6973 20.9359 21.2685 20.9359 20.6435V19.0079C20.9359 17.9512 21.7925 17.0946 22.8492 17.0946H26.358C26.4897 17.0946 26.6182 17.0537 26.7264 16.9775C26.8347 16.9014 26.9174 16.7934 26.9637 16.6681C27.01 16.5429 27.0175 16.4062 26.9854 16.2765C26.9532 16.1467 26.8829 16.0301 26.7837 15.942C26.5733 15.7597 26.4043 15.5333 26.2884 15.2782C26.1724 15.0232 26.1123 14.7456 26.1121 14.4646C26.1121 13.9415 26.3166 13.4398 26.6806 13.0699C27.0447 12.7 27.5384 12.4922 28.0532 12.4922C28.568 12.4922 29.0617 12.7 29.4257 13.0699C29.7897 13.4398 29.9943 13.9415 29.9943 14.4646C29.9941 14.7456 29.9339 15.0232 29.818 15.2782C29.7021 15.5333 29.5331 15.7597 29.3226 15.942C29.2235 16.0301 29.1531 16.1467 29.121 16.2765C29.0888 16.4062 29.0964 16.5429 29.1426 16.6681C29.1889 16.7934 29.2717 16.9014 29.3799 16.9775C29.4882 17.0537 29.6167 17.0946 29.7484 17.0946C32.7429 17.0946 35.1704 19.5221 35.1704 22.5166V24.3269V24.4419Z" fill="#FFE483" stroke="#FFE483" stroke-width="4" mask="url(#path-16-inside-7_402_432)"/>
</svg>
