<svg width="40" height="35" viewBox="0 0 40 35" fill="none" xmlns="http://www.w3.org/2000/svg">
<path d="M18.1914 15.0146C19.1489 13.9204 20.8511 13.9204 21.8086 15.0146L24.4824 18.0703C24.7996 18.4328 24.5422 19 24.0605 19C22.6464 19.0001 21.5001 20.1464 21.5 21.5605V31.7861C21.4998 32.6144 20.8283 33.2861 20 33.2861C19.1717 33.2861 18.5002 32.6144 18.5 31.7861V21.5605C18.4999 20.1464 17.3536 19.0001 15.9395 19C15.4578 19 15.2004 18.4328 15.5176 18.0703L18.1914 15.0146ZM18.75 1C22.6961 1 27.7101 3.23389 31.8154 6.59473C35.9373 9.96918 38.8499 14.235 38.9912 18.0664C38.9973 18.2317 39 18.4001 39 18.5713C39 21.6565 37.9018 23.8771 36.2812 25.335C34.6438 26.808 32.395 27.5713 30 27.5713H26.8574C26.384 27.5713 26 27.1873 26 26.7139C26.0002 26.2407 26.3842 25.8574 26.8574 25.8574H30C30.6209 25.8574 32.5049 25.776 34.2676 24.8359C35.1637 24.358 36.0463 23.6481 36.7012 22.6035C37.3581 21.5555 37.75 20.2271 37.75 18.5713C37.75 15.4034 36.3945 13.5011 34.6504 12.4502C32.9866 11.4478 31.0829 11.2861 30 11.2861H29.8096C28.6723 11.2861 27.7501 10.3638 27.75 9.22656C27.75 8.91611 27.7183 8.55201 27.5889 8.17871C27.3308 7.43469 26.6971 6.06518 25.3164 4.87695C23.917 3.6726 21.8187 2.71387 18.75 2.71387C16.4 2.71387 14.1603 3.78066 12.5186 5.36133C10.8781 6.94074 9.75 9.11699 9.75 11.4287V11.8926C9.75 13.1352 8.74264 14.1426 7.5 14.1426C6.28141 14.1426 5.29491 14.4697 4.51953 15.0166C3.75338 15.557 3.2521 16.2706 2.9248 16.9609C2.28261 18.3156 2.25 19.7077 2.25 20C2.25 20.451 2.30155 21.8518 2.96191 23.1748C3.29919 23.8504 3.80828 24.5318 4.57227 25.042C5.34259 25.5564 6.31217 25.8574 7.5 25.8574H13.1426C13.6158 25.8574 13.9998 26.2407 14 26.7139C14 27.1873 13.616 27.5713 13.1426 27.5713H7.5C5.31433 27.5713 3.72685 26.6684 2.66211 25.3086C1.57618 23.9217 1 22.0089 1 20C1 16.813 2.76893 13.1245 5.42188 9.76953C8.05909 6.4345 11.4447 3.58803 14.4268 2.06543C15.7605 1.38444 17.2302 1 18.75 1Z" fill="#FFE483" stroke="#FFE483" stroke-width="2"/>
</svg>
