<svg width="39" height="40" viewBox="0 0 39 40" fill="none" xmlns="http://www.w3.org/2000/svg">
<path d="M2.38056 19.2889L2.46944 19.4667C2.825 20.1667 3.83611 20.1667 4.19167 19.4667L4.28056 19.2889C4.64722 18.5667 5.23611 17.9889 5.95833 17.6111L6.13611 17.5222C6.83611 17.1667 6.83611 16.1556 6.13611 15.8L5.95833 15.7111C5.23611 15.3444 4.65833 14.7556 4.28056 14.0333L4.19167 13.8556C3.83611 13.1556 2.825 13.1556 2.46944 13.8556L2.38056 14.0333C2.01389 14.7556 1.425 15.3333 0.702778 15.7111L0.525 15.8C-0.175 16.1556 -0.175 17.1667 0.525 17.5222L0.702778 17.6111C1.425 17.9778 2.00278 18.5667 2.38056 19.2889Z" fill="#FFE483"/>
<path d="M4.30278 7.68889L4.63611 7.85556C5.95833 8.53333 7.025 9.6 7.70278 10.9222L7.86944 11.2556C8.525 12.5444 10.3694 12.5444 11.025 11.2556L11.1917 10.9222C11.8694 9.6 12.9361 8.53333 14.2583 7.85556L14.5917 7.68889C15.8806 7.03333 15.8806 5.18889 14.5917 4.53333L14.2583 4.36667C12.9361 3.68889 11.8694 2.62222 11.1917 1.3L11.025 0.966667C10.3694 -0.322222 8.525 -0.322222 7.86944 0.966667L7.70278 1.3C7.025 2.62222 5.95833 3.68889 4.63611 4.36667L4.30278 4.53333C3.01389 5.18889 3.01389 7.03333 4.30278 7.68889Z" fill="#FFE483"/>
<path d="M35.7028 32.3111L35.3694 32.1444C34.0472 31.4667 32.9806 30.4 32.3028 29.0778L32.1361 28.7444C31.4805 27.4556 29.6361 27.4556 28.9806 28.7444L28.8139 29.0778C28.1361 30.4 27.0694 31.4667 25.7472 32.1444L25.4139 32.3111C24.125 32.9667 24.125 34.8111 25.4139 35.4667L25.7472 35.6333C27.0694 36.3111 28.1361 37.3778 28.8139 38.7L28.9806 39.0333C29.6361 40.3222 31.4805 40.3222 32.1361 39.0333L32.3028 38.7C32.9806 37.3778 34.0472 36.3111 35.3694 35.6333L35.7028 35.4667C36.9917 34.8111 36.9917 32.9667 35.7028 32.3111Z" fill="#FFE483"/>
<path d="M37.6806 12.7556C36.9075 11.7824 36.6964 10.4771 37.1233 9.30983L37.1472 9.24444C37.825 7.4 37.3806 5.38889 35.9917 4C34.6028 2.61111 32.5917 2.16667 30.7472 2.84444L30.6818 2.86836C29.5146 3.29524 28.2093 3.08415 27.2361 2.31111C25.6806 1.07778 23.6139 0.866666 21.8472 1.77778C20.0806 2.68889 19.0472 4.47778 19.1361 6.46667C19.1912 7.65166 18.6183 8.77813 17.6281 9.43149L17.5917 9.45556C15.9472 10.5444 15.1139 12.4333 15.4139 14.3778C15.5845 15.515 15.522 16.7775 14.7224 17.6041L1.98056 30.7778C0.0583339 32.7667 0.0805558 35.9778 2.03611 37.9333C3.025 38.9222 4.33611 39.4222 5.64722 39.4222C6.95833 39.4222 8.21389 38.9444 9.19167 38L22.3653 25.2581C23.1919 24.4586 24.4544 24.3961 25.5917 24.5667C25.8583 24.6111 26.1139 24.6222 26.3694 24.6222C28.025 24.6222 29.5694 23.8 30.5139 22.3778L30.538 22.3413C31.1913 21.3512 32.3178 20.7782 33.5028 20.8333C35.4917 20.9444 37.2806 19.8889 38.1917 18.1222C39.1028 16.3556 38.8917 14.2889 37.6583 12.7333L37.6806 12.7556ZM16.5028 20.5851C16.5028 20.5804 16.5046 20.5759 16.5079 20.5725L18.4583 18.5524C18.5941 18.4117 18.7951 18.3715 18.9806 18.4333C20.2318 18.7928 21.21 19.771 21.5694 21.0222C21.6313 21.2077 21.5912 21.4087 21.4506 21.5447L20.6408 22.3283C19.4848 23.4469 17.5668 23.0625 16.9311 21.5847L16.5043 20.5923C16.5033 20.5901 16.5028 20.5876 16.5028 20.5851ZM15.6829 27.1111C15.6814 27.1111 15.68 27.1117 15.6789 27.1127L14.6745 28.0842C13.6911 29.0352 12.0599 28.7057 11.5227 27.4475C11.2144 26.7253 11.369 25.8885 11.9151 25.3242L12.5168 24.7024C13.2228 23.9727 14.4442 24.1977 14.8439 25.1311L15.6882 27.103C15.6898 27.1069 15.687 27.1111 15.6829 27.1111ZM6.88611 35.6056C6.88917 35.6086 6.8891 35.6136 6.88599 35.6166C6.19662 36.2777 5.0787 36.2648 4.40278 35.5889C3.725 34.9111 3.71389 33.8 4.38055 33.1L6.57476 30.8285C7.48022 29.8911 9.04821 30.1788 9.56203 31.3765C9.86076 32.0728 9.69774 32.8813 9.15251 33.4075L6.88621 35.5945C6.8831 35.5975 6.88306 35.6025 6.88611 35.6056ZM35.2528 16.6278C35.25 16.625 35.2456 16.6255 35.2439 16.6289C35.1269 16.8585 34.6599 17.5662 33.6917 17.5222L31.6917 17.4222C30.5806 17.3667 29.5028 17.9111 28.8806 18.8444L27.7472 20.5556C27.2028 21.3778 26.3583 21.3222 26.1139 21.2778C25.8694 21.2444 25.0472 21.0444 24.7694 20.1L24.1694 18.0111C23.8694 16.9444 23.0472 16.1333 21.9917 15.8333L19.9028 15.2333C18.9583 14.9667 18.7583 14.1444 18.725 13.8889C18.6917 13.6333 18.625 12.8 19.4472 12.2556L21.1583 11.1222C22.0917 10.5111 22.6361 9.43333 22.5806 8.31111L22.4806 6.31111C22.4361 5.32222 23.1583 4.86667 23.3806 4.75556C23.5028 4.68889 23.7917 4.56667 24.1583 4.56667C24.4583 4.56667 24.8139 4.65556 25.1694 4.93333L26.8028 6.23333C27.6583 6.91111 28.8361 7.11111 29.8694 6.73333L31.8917 5.98889C32.8139 5.65556 33.4583 6.2 33.6361 6.37778C33.8139 6.55555 34.3583 7.2 34.025 8.12222L33.2806 10.1444C32.9028 11.1778 33.0917 12.3556 33.7806 13.2111L35.0806 14.8444C35.6967 15.6146 35.3759 16.3956 35.2617 16.6266C35.2599 16.6301 35.2555 16.6305 35.2528 16.6278Z" fill="#FFE483"/>
</svg>
