<svg width="33" height="40" viewBox="0 0 33 40" fill="none" xmlns="http://www.w3.org/2000/svg">
<path d="M3.74121 26.6007L2.74219 26.5997C2.28216 26.5992 1.83966 26.4157 1.5127 26.087C1.22648 25.7993 1.04907 25.4209 1.00879 25.0177L1 24.8429V16.5792C1.00091 15.7465 1.33007 14.9486 1.91406 14.3614C2.46139 13.8112 3.19066 13.4875 3.95801 13.4483L4.1123 13.4444H28.7764L28.9307 13.4483C29.6981 13.4874 30.4272 13.8111 30.9746 14.3614C31.5221 14.9119 31.8456 15.6471 31.8848 16.423L31.8887 16.5792V24.8448C31.8877 25.3118 31.7028 25.7585 31.376 26.087C31.0491 26.4155 30.6073 26.5991 30.1475 26.5997L29.1484 26.6007V37.2442C29.1477 37.7113 28.9625 38.1578 28.6357 38.4864C28.3088 38.8152 27.8663 38.9996 27.4062 39.0001H21.9268C21.4668 38.9995 21.0251 38.8151 20.6982 38.4864C20.4119 38.1985 20.2345 37.8205 20.1943 37.4171L20.1855 37.2433V21.711H20.9258V38.2442H28.4072V25.8448H31.1484V16.5773C31.1479 15.9488 30.8987 15.3446 30.4551 14.8985C30.0113 14.4525 29.4082 14.2009 28.7783 14.2003H4.11035C3.48043 14.2009 2.8774 14.4524 2.43359 14.8985C1.98995 15.3446 1.74177 15.9488 1.74121 16.5773V25.8448H4.48145V38.2442H11.9629V21.711H12.7041V37.2442C12.7033 37.7112 12.5181 38.1578 12.1914 38.4864C11.8645 38.8152 11.422 38.9996 10.9619 39.0001H5.48242C5.02244 38.9995 4.58082 38.8151 4.25391 38.4864C3.96754 38.1985 3.78918 37.8205 3.74902 37.4171L3.74121 37.2433V26.6007Z" fill="#FFE483" stroke="#FFE483" stroke-width="2"/>
<path d="M7.15234 1.08301C7.99271 0.915923 8.86365 1.00224 9.65527 1.33008C10.4471 1.65806 11.1244 2.21317 11.6006 2.92578C12.0172 3.54923 12.2641 4.26855 12.3193 5.0127L12.3311 5.33301C12.3297 6.48193 11.872 7.58308 11.0596 8.39551C10.247 9.2081 9.14528 9.66481 7.99609 9.66602C7.1395 9.66576 6.30209 9.41243 5.58984 8.93652C4.87723 8.46037 4.32212 7.78303 3.99414 6.99121C3.66631 6.19959 3.57999 5.32865 3.74707 4.48828C3.91427 3.64769 4.32757 2.87556 4.93359 2.26953C5.53962 1.6635 6.31176 1.25021 7.15234 1.08301ZM11.6641 5.33203C11.6629 4.36028 11.276 3.42835 10.5889 2.74121C9.90183 2.05435 8.97051 1.66823 7.99902 1.66699H7.99707C7.27199 1.66706 6.56285 1.88134 5.95996 2.28418C5.35707 2.68703 4.8869 3.25981 4.60938 3.92969C4.33185 4.59968 4.25989 5.33756 4.40137 6.04883C4.54284 6.75987 4.89173 7.41308 5.4043 7.92578C5.91709 8.43857 6.57096 8.78821 7.28223 8.92969C7.99341 9.07112 8.73047 8.99817 9.40039 8.7207C10.0704 8.44318 10.643 7.9731 11.0459 7.37012C11.4487 6.76716 11.6641 6.05816 11.6641 5.33301V5.33203Z" fill="#FFE483" stroke="#FFE483" stroke-width="2"/>
<path d="M24.043 1.08301C24.8833 0.915923 25.7543 1.00224 26.5459 1.33008C27.3377 1.65806 28.0151 2.21317 28.4912 2.92578C28.9078 3.54923 29.1548 4.26855 29.21 5.0127L29.2217 5.33301C29.2203 6.48193 28.7626 7.58308 27.9502 8.39551C27.1376 9.2081 26.0359 9.66481 24.8867 9.66602C24.0301 9.66576 23.1927 9.41243 22.4805 8.93652C21.7679 8.46037 21.2127 7.78303 20.8848 6.99121C20.5569 6.19959 20.4706 5.32865 20.6377 4.48828C20.8049 3.6477 21.2182 2.87556 21.8242 2.26953C22.4302 1.6635 23.2024 1.25021 24.043 1.08301ZM28.5547 5.33203C28.5535 4.36028 28.1666 3.42835 27.4795 2.74121C26.7925 2.05435 25.8611 1.66823 24.8896 1.66699H24.8877C24.1626 1.66706 23.4535 1.88134 22.8506 2.28418C22.2477 2.68703 21.7775 3.25981 21.5 3.92969C21.2225 4.59968 21.1505 5.33756 21.292 6.04883C21.4335 6.75987 21.7824 7.41308 22.2949 7.92578C22.8077 8.43857 23.4616 8.78821 24.1729 8.92969C24.884 9.07112 25.6211 8.99817 26.291 8.7207C26.961 8.44318 27.5336 7.9731 27.9365 7.37012C28.3394 6.76716 28.5547 6.05816 28.5547 5.33301V5.33203Z" fill="#FFE483" stroke="#FFE483" stroke-width="2"/>
</svg>
