<svg width="31" height="43" viewBox="0 0 31 43" fill="none" xmlns="http://www.w3.org/2000/svg">
<path d="M22.5361 20.2506L26.544 23.5422C27.7692 24.548 28.4763 26.0506 28.4763 27.6324V41" stroke="#FFE483" stroke-width="3.20548" stroke-linecap="round" stroke-linejoin="round"/>
<path d="M7.94016 20.2506L3.9323 23.5422C2.70709 24.548 2 26.0506 2 27.6324V41" stroke="#FFE483" stroke-width="3.20548" stroke-linecap="round" stroke-linejoin="round"/>
<path d="M23.4961 28.9155L23.5174 31.7378V39.9516" stroke="#FFE483" stroke-width="3.20548" stroke-linecap="round" stroke-linejoin="round"/>
<path d="M6.98032 28.9155L6.95898 31.7378V39.9516" stroke="#FFE483" stroke-width="3.20548" stroke-linecap="round" stroke-linejoin="round"/>
<path d="M23.4545 11.8582C24.1844 7.32129 21.0983 3.05163 16.5613 2.32169C12.0244 1.59174 7.75476 4.67791 7.02481 9.21484C6.29486 13.7518 9.38103 18.0214 13.918 18.7514C18.4549 19.4813 22.7246 16.3952 23.4545 11.8582Z" stroke="#FFE483" stroke-width="3.20548" stroke-linecap="round" stroke-linejoin="round"/>
<path d="M15.2401 5.56628C14.5148 5.56628 13.826 5.72782 13.2012 6.00822C14.9262 6.78845 16.1332 8.52265 16.1332 10.5342C16.1332 12.5457 14.9262 14.2799 13.2012 15.0602C13.8229 15.3406 14.5117 15.5021 15.2401 15.5021C17.9801 15.5021 20.2081 13.2742 20.2081 10.5342C20.2081 7.79422 17.9801 5.56628 15.2401 5.56628Z" fill="#FFF3D6"/>
</svg>
