<svg width="46" height="40" viewBox="0 0 46 40" fill="none" xmlns="http://www.w3.org/2000/svg">
<g clip-path="url(#clip0_160_559)">
<path d="M12.0279 6.19551H44.4846V38.6486H6.61842C4.1682 38.6486 2.18164 36.6587 2.18164 34.2044V6.03863C2.18164 3.9084 3.90442 2.18274 6.03111 2.18274C8.1578 2.18274 9.88058 3.9084 9.88058 6.03863V33.5191C9.88058 33.5191 6.9399 30.9162 3.69629 32.4911" stroke="#FFE483" stroke-width="2" stroke-linecap="round" stroke-linejoin="round"/>
<path d="M23.834 33.2723V14.5223H30.2378V33.2723" stroke="#FFE483" stroke-width="2" stroke-miterlimit="10" stroke-linecap="round"/>
<path d="M27.7603 17.0687H25.8965V31.5373H27.7603V17.0687Z" fill="#FFE483"/>
<path d="M21.2368 21.2693H19.373V31.5373H21.2368V21.2693Z" fill="#FFE483"/>
<path d="M34.2837 13.3348H32.4199V31.5372H34.2837V13.3348Z" fill="#FFE483"/>
<path d="M17.2051 33.0998V18.6609H23.6799" stroke="#FFE483" stroke-width="2" stroke-miterlimit="10" stroke-linecap="round"/>
<path d="M30.2373 11.0684H36.6411V33.2723" stroke="#FFE483" stroke-width="2" stroke-miterlimit="10" stroke-linecap="round"/>
<path d="M39.626 33.649H13.4092" stroke="#FFE483" stroke-width="2" stroke-miterlimit="10" stroke-linecap="round"/>
</g>
<defs>
<clipPath id="clip0_160_559">
<rect width="45.8333" height="40" fill="white"/>
</clipPath>
</defs>
</svg>
