<svg width="39" height="40" viewBox="0 0 39 40" fill="none" xmlns="http://www.w3.org/2000/svg">
<path d="M2.39571 19.2889L2.48516 19.4667C2.84298 20.1667 3.86053 20.1667 4.21835 19.4667L4.3078 19.2889C4.6768 18.5667 5.26944 17.9889 5.99626 17.6111L6.17517 17.5222C6.87962 17.1667 6.87962 16.1556 6.17517 15.8L5.99626 15.7111C5.26944 15.3444 4.68798 14.7556 4.3078 14.0333L4.21835 13.8556C3.86053 13.1556 2.84298 13.1556 2.48516 13.8556L2.39571 14.0333C2.02671 14.7556 1.43407 15.3333 0.707251 15.7111L0.528342 15.8C-0.176114 16.1556 -0.176114 17.1667 0.528342 17.5222L0.707251 17.6111C1.43407 17.9778 2.01553 18.5667 2.39571 19.2889Z" fill="#D9D0FF"/>
<path d="M4.33017 7.68889L4.66562 7.85556C5.99626 8.53333 7.06972 9.6 7.75181 10.9222L7.91953 11.2556C8.57926 12.5444 10.4354 12.5444 11.0952 11.2556L11.2629 10.9222C11.945 9.6 13.0185 8.53333 14.3491 7.85556L14.6845 7.68889C15.9816 7.03333 15.9816 5.18889 14.6845 4.53333L14.3491 4.36667C13.0185 3.68889 11.945 2.62222 11.2629 1.3L11.0952 0.966667C10.4354 -0.322222 8.57926 -0.322222 7.91953 0.966667L7.75181 1.3C7.06972 2.62222 5.99626 3.68889 4.66562 4.36667L4.33017 4.53333C3.03307 5.18889 3.03307 7.03333 4.33017 7.68889Z" fill="#D9D0FF"/>
<path d="M35.93 32.3111L35.5946 32.1444C34.2639 31.4667 33.1905 30.4 32.5084 29.0778L32.3407 28.7444C31.6809 27.4556 29.8247 27.4556 29.165 28.7444L28.9973 29.0778C28.3152 30.4 27.2417 31.4667 25.9111 32.1444L25.5757 32.3111C24.2786 32.9667 24.2786 34.8111 25.5757 35.4667L25.9111 35.6333C27.2417 36.3111 28.3152 37.3778 28.9973 38.7L29.165 39.0333C29.8247 40.3222 31.6809 40.3222 32.3407 39.0333L32.5084 38.7C33.1905 37.3778 34.2639 36.3111 35.5946 35.6333L35.93 35.4667C37.2271 34.8111 37.2271 32.9667 35.93 32.3111Z" fill="#D9D0FF"/>
<path d="M37.9204 12.7556C37.143 11.7831 36.9308 10.475 37.3608 9.30661L37.3837 9.24444C38.0658 7.4 37.6185 5.38889 36.2208 4C34.823 2.61111 32.7991 2.16667 30.9429 2.84444L30.8739 2.86953C29.7003 3.29601 28.3896 3.08474 27.4095 2.31111C25.844 1.07778 23.7642 0.866666 21.9863 1.77778C20.2084 2.68889 19.1685 4.47778 19.2579 6.46667C19.3134 7.65108 18.739 8.77668 17.7474 9.42684L17.7036 9.45556C16.0487 10.5444 15.2101 12.4333 15.512 14.3778C15.6836 15.5143 15.621 16.7773 14.8192 17.601L1.99316 30.7778C0.0587052 32.7667 0.0810685 35.9778 2.04907 37.9333C3.04425 38.9222 4.36371 39.4222 5.68317 39.4222C7.00262 39.4222 8.26617 38.9444 9.25017 38L22.5045 25.2612C23.3393 24.4588 24.6093 24.396 25.7546 24.5667C26.0229 24.6111 26.2801 24.6222 26.5373 24.6222C28.2034 24.6222 29.7577 23.8 30.7081 22.3778L30.7277 22.3483C31.3884 21.3533 32.5229 20.7782 33.716 20.8333C35.7176 20.9444 37.5179 19.8889 38.4348 18.1222C39.3517 16.3556 39.1392 14.2889 37.898 12.7333L37.9204 12.7556ZM16.6078 20.5851C16.6078 20.5804 16.6097 20.5759 16.6129 20.5725L18.5752 18.553C18.7124 18.4118 18.9146 18.3715 19.1014 18.4333C20.3538 18.7909 21.345 19.771 21.7067 21.0222C21.7689 21.2076 21.7287 21.4086 21.5877 21.5442L20.7638 22.3364C19.6015 23.4539 17.681 23.0681 17.0405 21.5884L16.6093 20.5923C16.6083 20.5901 16.6078 20.5876 16.6078 20.5851ZM15.7827 27.1111C15.7812 27.1111 15.7798 27.1117 15.7787 27.1127L14.7556 28.096C13.7694 29.0437 12.1401 28.7139 11.6002 27.4572C11.2877 26.7298 11.4441 25.8858 11.9964 25.3186L12.6059 24.6927C13.3138 23.9657 14.5332 24.1909 14.9348 25.1228L15.788 27.103C15.7897 27.1068 15.7869 27.1111 15.7827 27.1111ZM6.92995 35.6056C6.93301 35.6086 6.93295 35.6136 6.92982 35.6166C6.23607 36.2777 5.11102 36.2648 4.4308 35.5889C3.74871 34.9111 3.73753 33.8 4.40844 33.1L6.6277 30.8171C7.53605 29.8827 9.10232 30.1707 9.61885 31.3671C9.9216 32.0683 9.7568 32.8839 9.2055 33.4125L6.93004 35.5945C6.92692 35.5975 6.92688 35.6025 6.92995 35.6056ZM35.4772 16.6278C35.4744 16.625 35.4699 16.6255 35.4682 16.6289C35.3505 16.8586 34.8805 17.5662 33.9061 17.5222L31.8934 17.4222C30.7752 17.3667 29.6906 17.9111 29.0644 18.8444L27.9238 20.5556C27.3759 21.3778 26.5261 21.3222 26.2801 21.2778C26.0341 21.2444 25.2066 21.0444 24.9271 20.1L24.3233 18.0111C24.0214 16.9444 23.1939 16.1333 22.1316 15.8333L20.0295 15.2333C19.079 14.9667 18.8777 14.1444 18.8442 13.8889C18.8106 13.6333 18.7435 12.8 19.571 12.2556L21.293 11.1222C22.2323 10.5111 22.7802 9.43333 22.7243 8.31111L22.6236 6.31111C22.5789 5.32222 23.3057 4.86667 23.5294 4.75556C23.6524 4.68889 23.9431 4.56667 24.3121 4.56667C24.614 4.56667 24.9718 4.65556 25.3296 4.93333L26.9734 6.23333C27.8344 6.91111 29.0197 7.11111 30.0596 6.73333L32.0947 5.98889C33.0228 5.65556 33.6713 6.2 33.8502 6.37778C34.0291 6.55555 34.577 7.2 34.2416 8.12222L33.4924 10.1444C33.1122 11.1778 33.3023 12.3556 33.9956 13.2111L35.3038 14.8444C35.9239 15.6146 35.6011 16.3956 35.4861 16.6266C35.4844 16.6301 35.4799 16.6305 35.4772 16.6278Z" fill="#D9D0FF"/>
</svg>
