<svg xmlns="http://www.w3.org/2000/svg" width="49" height="42" viewBox="0 0 49 42" fill="none">
  <path d="M22.1152 18.2441C23.3778 16.8014 25.6222 16.8014 26.8848 18.2441L30.1602 21.9873C30.676 22.5768 30.2578 23.4998 29.4746 23.5C27.8665 23.5 26.5625 24.804 26.5625 26.4121V38.9375C26.5625 40.0766 25.6391 41 24.5 41C23.3609 41 22.4375 40.0766 22.4375 38.9375V26.4121C22.4375 24.804 21.1335 23.5 19.5254 23.5C18.7422 23.4998 18.324 22.5768 18.8398 21.9873L22.1152 18.2441ZM22.9688 1C27.8737 1 34.0647 3.76883 39.1162 7.9043C44.1843 12.0534 47.8116 17.3335 47.9883 22.123C47.9959 22.3284 48 22.5375 48 22.75C48 26.5875 46.6316 29.3708 44.5947 31.2031C42.5411 33.0505 39.7298 34 36.75 34H32.9004C32.1962 34 31.625 33.4288 31.625 32.7246C31.6252 32.0206 32.1964 31.4502 32.9004 31.4502H36.75C37.4975 31.4502 39.7613 31.3513 41.8721 30.2256C42.9421 29.6549 43.9901 28.8103 44.7676 27.5703C45.5473 26.3267 46.0186 24.742 46.0186 22.75C46.0186 18.9456 44.3978 16.6897 42.3311 15.4443C40.3445 14.2473 38.0608 14.0498 36.75 14.0498H36.5166C34.9993 14.0498 33.7687 12.82 33.7686 11.3027C33.7686 10.937 33.7316 10.5174 33.584 10.0918C33.2764 9.20507 32.5185 7.56651 30.8662 6.14453C29.195 4.70629 26.6772 3.5498 22.9688 3.5498C20.1576 3.5498 17.4686 4.82762 15.4922 6.73047C13.517 8.63211 12.1689 11.2415 12.1689 14V14.5684C12.1689 16.2149 10.834 17.5498 9.1875 17.5498C7.73688 17.5498 6.57455 17.9383 5.66602 18.5791C4.76686 19.2133 4.17495 20.053 3.78613 20.873C3.02089 22.4872 2.98145 24.1531 2.98145 24.5C2.98145 25.041 3.04355 26.7154 3.8291 28.2891C4.22891 29.09 4.82938 29.8907 5.72559 30.4893C6.62828 31.0921 7.77184 31.4502 9.1875 31.4502H16.0996C16.8036 31.4502 17.3748 32.0206 17.375 32.7246C17.375 33.4288 16.8038 34 16.0996 34H9.1875C6.43933 34 4.42997 32.8606 3.08398 31.1416C1.71684 29.3955 1 27.0006 1 24.5C1 20.5219 3.20307 15.9543 6.46582 11.8281C9.71286 7.72197 13.8847 4.21237 17.5713 2.33008C19.2341 1.48112 21.0687 1 22.9688 1Z" fill="#FFE483" stroke="#FFE483" stroke-width="2"/>
</svg>