<svg width="35" height="30" viewBox="0 0 35 30" fill="none" xmlns="http://www.w3.org/2000/svg">
<path d="M15.8672 13.0938C16.7314 12.1061 18.2686 12.1061 19.1328 13.0938L21.4717 15.7676C21.7867 16.1276 21.5311 16.6914 21.0527 16.6914C19.8521 16.6916 18.8791 17.6646 18.8789 18.8652V27.8125C18.8789 28.5739 18.2614 29.1914 17.5 29.1914C16.7386 29.1914 16.1211 28.5739 16.1211 27.8125V18.8652C16.1209 17.6646 15.1479 16.6916 13.9473 16.6914C13.4689 16.6914 13.2133 16.1276 13.5283 15.7676L15.8672 13.0938ZM16.4062 0.808594C19.8799 0.808594 24.2812 2.77273 27.8799 5.71875C31.4921 8.67595 34.0589 12.4249 34.1836 15.8057C34.189 15.9512 34.1914 16.0994 34.1914 16.25C34.1914 18.9667 33.2232 20.9284 31.79 22.2178C30.3432 23.5192 28.359 24.1914 26.25 24.1914H23.5C23.0492 24.1914 22.6836 23.8258 22.6836 23.375C22.6836 22.9242 23.0492 22.5586 23.5 22.5586H26.25C26.7895 22.5586 28.4251 22.4878 29.9531 21.6729C30.729 21.259 31.491 20.6454 32.0566 19.7432C32.6241 18.8379 32.9648 17.6883 32.9648 16.25C32.9648 13.5006 31.7906 11.8584 30.2852 10.9512C28.8445 10.0831 27.1929 9.94141 26.25 9.94141H26.083C25.0514 9.94135 24.2149 9.10487 24.2148 8.07324C24.2148 7.80588 24.1881 7.49505 24.0781 7.17773C23.8549 6.53405 23.3058 5.34717 22.1094 4.31738C20.8976 3.27448 19.0764 2.44141 16.4062 2.44141C14.3699 2.44141 12.4263 3.366 11 4.73926C9.57472 6.11149 8.59766 7.99883 8.59766 10V10.4062C8.59766 11.5301 7.68638 12.4414 6.5625 12.4414C5.50864 12.4414 4.65849 12.7234 3.99219 13.1934C3.33352 13.658 2.90192 14.2727 2.61914 14.8691C2.06353 16.0411 2.03516 17.2475 2.03516 17.5C2.03516 17.8913 2.0794 19.1052 2.65039 20.249C2.94159 20.8323 3.38031 21.4188 4.03711 21.8574C4.69908 22.2995 5.5348 22.5586 6.5625 22.5586H11.5C11.9508 22.5586 12.3164 22.9242 12.3164 23.375C12.3164 23.8258 11.9508 24.1914 11.5 24.1914H6.5625C4.62923 24.1914 3.22126 23.3911 2.27734 22.1855C1.31635 20.9581 0.808594 19.2694 0.808594 17.5C0.808594 14.6896 2.36729 11.4482 4.69238 8.50781C7.00481 5.58346 9.9745 3.08638 12.5938 1.74902C13.7693 1.1488 15.0652 0.808594 16.4062 0.808594Z" fill="#FFE483" stroke="#FFE483" stroke-width="1.61757"/>
</svg>
